<?xml version="1.0" encoding="utf-8"?>
<!-- Generator: Adobe Illustrator 17.0.0, SVG Export Plug-In . SVG Version: 6.00 Build 0)  -->
<!DOCTYPE svg PUBLIC "-//W3C//DTD SVG 1.1//EN" "http://www.w3.org/Graphics/SVG/1.1/DTD/svg11.dtd">
<svg version="1.1" id="Layer_1" xmlns="http://www.w3.org/2000/svg" xmlns:xlink="http://www.w3.org/1999/xlink" x="0px" y="0px"
	 width="25px" height="27px" viewBox="0 0 25 27" enable-background="new 0 0 25 27" xml:space="preserve">
<g>
	<path fill="#00ABD6" d="M23.71,15.813l-4.036-4.036c-0.18-0.181-0.392-0.224-0.636-0.127c-0.244,0.095-0.36,0.276-0.36,0.54v2.054
		c-1.451,0.255-2.867,0.8-3.856,1.376c-0.971,0.567-1.907,1.315-2.458,1.876c-0.551,0.563-1.026,1.198-1.197,1.462
		c-0.083,0.129-0.14,0.221-0.169,0.276c-0.14,0.262-0.114,0.518,0.106,0.721c0.193,0.179,0.498,0.201,0.71,0.063
		c0.042-0.043,0.412-0.267,1.25-0.635c0.412-0.183,0.87-0.357,1.367-0.52c0.499-0.165,1.102-0.314,1.79-0.434
		c0.7-0.124,1.388-0.192,2.066-0.192h0.392v2.002c0,0.244,0.117,0.425,0.36,0.54c0.085,0.032,0.159,0.043,0.222,0.043
		c0.159,0,0.297-0.054,0.413-0.169l4.036-4.016C23.933,16.416,23.932,16.034,23.71,15.813z M19.843,18.832v-1.134
		c0-0.307-0.233-0.572-0.54-0.583c-0.222-0.032-0.561-0.041-1.017-0.041c-1.515,0-3.04,0.253-4.555,0.773
		c1.642-1.388,3.507-2.222,5.614-2.511c0.287-0.038,0.498-0.276,0.498-0.583v-1.155l2.606,2.628L19.843,18.832z"/>
	<path fill="#00ABD6" d="M3.381,19.542V7.783l8.178,8.357c0.115,0.118,0.254,0.169,0.413,0.169h0.021
		c0.18,0,0.319-0.052,0.434-0.169l8.157-8.357v3.103h1.165V6.002c0-0.719-0.551-1.302-1.271-1.302H3.487
		c-0.36,0-0.667,0.127-0.911,0.38C2.332,5.336,2.205,5.643,2.205,6.002v13.539c0,0.35,0.124,0.66,0.371,0.911
		c0.241,0.246,0.551,0.371,0.911,0.371h6.229v-1.175H3.487C3.413,19.648,3.381,19.616,3.381,19.542z M3.381,6.002
		c0-0.084,0.032-0.127,0.106-0.127h16.992c0.074,0,0.106,0.043,0.106,0.127v0.106l-8.591,8.793L3.381,6.109V6.002z"/>
</g>
<g>
	<g>
		<g>
			<polygon fill="#F47D35" points="8.407,19.365 4.49,24.4 9.74,20.774 9.771,19.41 			"/>
		</g>
		<g>
			<polygon fill="#CC4E27" points="8.508,19.579 9.555,19.614 9.531,20.661 6.269,22.719 			"/>
		</g>
		<g>
			<polygon fill="#8F331D" points="8.608,19.794 9.339,19.818 9.322,20.549 8.048,21.038 			"/>
		</g>
		<g>
			<polygon fill="#F47D35" points="10.3,21.366 6.383,26.402 11.633,22.776 11.665,21.412 			"/>
		</g>
		<g>
			<polygon fill="#CC4E27" points="10.409,21.574 11.457,21.608 11.432,22.655 8.17,24.713 			"/>
		</g>
	</g>
	<g>
		<polygon fill="#8F331D" points="10.51,21.788 11.24,21.813 11.223,22.543 9.949,23.032 		"/>
	</g>
</g>
</svg>
